<svg width="62" height="63" viewBox="0 0 62 63" fill="none" xmlns="http://www.w3.org/2000/svg">
<path d="M61.7627 0.425903H0.295776V63H61.7627V0.425903Z" fill="#F1F3F4"/>
<path d="M23.6527 20.9243H18.7354V25.2398H23.6527V20.9243Z" fill="#40BFFF"/>
<path d="M23.6527 29.5553H18.7354V33.8707H23.6527V29.5553Z" fill="#40BFFF"/>
<path d="M23.6527 38.1861H18.7354V42.5016H23.6527V38.1861Z" fill="#40BFFF"/>
<path d="M33.4879 20.9243H28.5706V25.2398H33.4879V20.9243Z" fill="#40BFFF"/>
<path d="M33.4879 29.5553H28.5706V33.8707H33.4879V29.5553Z" fill="#40BFFF"/>
<path d="M28.5706 38.1861H33.4879V42.5016H28.5706V38.1861Z" fill="#40BFFF"/>
<path d="M43.3224 20.9243H38.405V25.2398H43.3224V20.9243Z" fill="#40BFFF"/>
<path d="M43.3224 29.5553H38.405V33.8707H43.3224V29.5553Z" fill="#40BFFF"/>
<path d="M43.3224 38.1861H38.405V42.5016H43.3224V38.1861Z" fill="#40BFFF"/>
</svg>
